<svg width="1732" height="530" viewBox="0 0 1732 530" fill="none" xmlns="http://www.w3.org/2000/svg">
<path fill-rule="evenodd" clip-rule="evenodd" d="M-69.3467 0.694702L-26.8921 299.043C16.5979 390.983 102.542 368.457 187.451 460.397C273.396 550.83 359.341 550.83 445.285 472.455C537.2 412.765 629.932 322.006 702.083 277.72C788.028 224.967 863.566 277.813 959.917 213.75C1045.86 200.185 1131.81 106.2 1216.71 106.2C1302.66 106.2 1388.6 157.446 1474.55 171.011C1560.49 184.576 1645.4 131.823 1688.89 106.2L1731.35 79.0702V0.694702H1688.89C1645.4 0.694702 1560.49 0.694702 1474.55 0.694702C1388.6 0.694702 1302.66 0.694702 1216.71 0.694702C1131.81 0.694702 1045.86 0.694702 959.917 0.694702C873.972 0.694702 788.028 0.694702 702.083 0.694702C617.174 0.694702 531.23 0.694702 445.285 0.694702C359.341 0.694702 273.396 0.694702 187.451 0.694702C102.542 0.694702 16.5979 0.694702 -26.8922 0.694702H-69.3467Z" fill="url(#paint0_linear_611_530)"/>
<defs>
<linearGradient id="paint0_linear_611_530" x1="-69.3467" y1="265.252" x2="1731.35" y2="265.252" gradientUnits="userSpaceOnUse">
<stop stop-color="#4393B3"/>
<stop offset="0.859519" stop-color="#FFB0DA"/>
</linearGradient>
</defs>
</svg>
